<svg width="35" height="36" viewBox="0 0 35 36" fill="none" xmlns="http://www.w3.org/2000/svg">
<path fill-rule="evenodd" clip-rule="evenodd" d="M0 18C0 8.33502 7.83502 0.5 17.5 0.5C27.165 0.5 35 8.33502 35 18C35 27.665 27.165 35.5 17.5 35.5C7.83502 35.5 0 27.665 0 18Z" fill="#3B5998"/>
<rect y="0.5" width="35" height="35" rx="5" fill="#3B5998"/>
<path fill-rule="evenodd" clip-rule="evenodd" d="M19.3241 28.2896V18.7687H21.9523L22.3006 15.4877H19.3241L19.3286 13.8456C19.3286 12.9899 19.4099 12.5313 20.639 12.5313H22.282V9.25H19.6534C16.4961 9.25 15.3848 10.8416 15.3848 13.5182V15.4881H13.4167V18.7691H15.3848V28.2896H19.3241Z" fill="white"/>
</svg>
