<svg width="35" height="36" viewBox="0 0 35 36" fill="none" xmlns="http://www.w3.org/2000/svg">
<path fill-rule="evenodd" clip-rule="evenodd" d="M0 18C0 8.33502 7.83502 0.5 17.5 0.5C27.165 0.5 35 8.33502 35 18C35 27.665 27.165 35.5 17.5 35.5C7.83502 35.5 0 27.665 0 18Z" fill="url(#paint0_linear_7477_139)"/>
<rect y="0.5" width="35" height="35" rx="5" fill="url(#paint1_linear_7477_139)"/>
<path fill-rule="evenodd" clip-rule="evenodd" d="M12.7079 18.0001C12.7079 15.3531 14.8541 13.2069 17.5011 13.2069C20.148 13.2071 22.2934 15.3531 22.2934 18.0001C22.2934 20.6471 20.1481 22.7922 17.5011 22.7922C14.8541 22.7922 12.7079 20.6471 12.7079 18.0001ZM20.6122 18.0003C20.6122 16.282 19.2191 14.8892 17.501 14.8892C15.7827 14.8892 14.3899 16.282 14.3899 18.0003C14.3899 19.7184 15.7827 21.1114 17.501 21.1114C19.2191 21.1114 20.6122 19.7184 20.6122 18.0003Z" fill="white"/>
<path d="M21.3631 13.0182C21.3631 12.3996 21.8648 11.8985 22.4831 11.8985C23.1014 11.8985 23.6031 12.3998 23.6031 13.0182C23.6031 13.6365 23.1014 14.1382 22.4831 14.1382C21.8648 14.1382 21.3631 13.6365 21.3631 13.0182Z" fill="white"/>
<path fill-rule="evenodd" clip-rule="evenodd" d="M13.6525 8.72314C14.648 8.67783 14.9662 8.66675 17.501 8.66675H17.498C20.0336 8.66675 20.3506 8.67783 21.3461 8.72314C22.3398 8.76864 23.0184 8.92595 23.6134 9.15675C24.2278 9.39495 24.747 9.71384 25.2662 10.233C25.7853 10.7518 26.1042 11.2725 26.3434 11.8864C26.5729 12.4798 26.7304 13.1581 26.777 14.1517C26.8217 15.1473 26.8334 15.4654 26.8334 18.0002C26.8334 20.535 26.8217 20.8523 26.777 21.8479C26.7304 22.8411 26.5729 23.5195 26.3434 24.1132C26.1042 24.7269 25.7853 25.2476 25.2662 25.7664C24.7476 26.2855 24.2276 26.6052 23.614 26.8436C23.0201 27.0744 22.3411 27.2317 21.3475 27.2772C20.3519 27.3225 20.0348 27.3336 17.4998 27.3336C14.9652 27.3336 14.6473 27.3225 13.6517 27.2772C12.6583 27.2317 11.9798 27.0744 11.386 26.8436C10.7725 26.6052 10.2518 26.2855 9.73321 25.7664C9.21423 25.2476 8.89534 24.7269 8.65675 24.113C8.42614 23.5195 8.26883 22.8413 8.22314 21.8477C8.17803 20.8521 8.16675 20.535 8.16675 18.0002C8.16675 15.4654 8.17841 15.1471 8.22294 14.1515C8.26767 13.1583 8.42517 12.4798 8.65656 11.8862C8.89573 11.2725 9.21462 10.7518 9.73379 10.233C10.2526 9.71404 10.7733 9.39514 11.3872 9.15675C11.9806 8.92595 12.6589 8.76864 13.6525 8.72314ZM17.1899 10.3486C17.0012 10.3486 16.8263 10.3485 16.6637 10.3487V10.3464C14.9242 10.3483 14.5905 10.36 13.7295 10.3989C12.8195 10.4407 12.3254 10.5924 11.9964 10.7207C11.5609 10.8903 11.2497 11.0925 10.9231 11.4192C10.5964 11.7458 10.3938 12.0569 10.2246 12.4925C10.0969 12.8215 9.94481 13.3154 9.9032 14.2254C9.85847 15.2093 9.84953 15.5033 9.84953 17.9957C9.84953 20.4881 9.85847 20.7837 9.9032 21.7676C9.94461 22.6776 10.0969 23.1715 10.2246 23.5001C10.3942 23.9359 10.5964 24.2462 10.9231 24.5729C11.2497 24.8995 11.5609 25.1018 11.9964 25.2709C12.3256 25.3987 12.8195 25.5507 13.7295 25.5927C14.7134 25.6375 15.0088 25.6472 17.501 25.6472C19.993 25.6472 20.2886 25.6375 21.2725 25.5927C22.1825 25.5511 22.6768 25.3995 23.0054 25.2711C23.4411 25.102 23.7513 24.8997 24.078 24.5731C24.4046 24.2466 24.6072 23.9365 24.7764 23.5009C24.9042 23.1723 25.0562 22.6784 25.0978 21.7684C25.1425 20.7845 25.1523 20.4889 25.1523 17.9981C25.1523 15.5072 25.1425 15.2116 25.0978 14.2277C25.0564 13.3177 24.9042 12.8238 24.7764 12.4952C24.6068 12.0597 24.4046 11.7485 24.078 11.4219C23.7515 11.0952 23.4409 10.893 23.0054 10.7238C22.6764 10.5961 22.1825 10.444 21.2725 10.4024C20.2884 10.3577 19.993 10.3487 17.501 10.3487L17.1899 10.3486Z" fill="white"/>
<defs>
<linearGradient id="paint0_linear_7477_139" x1="29.4014" y1="35.5" x2="6.53485" y2="0.500001" gradientUnits="userSpaceOnUse">
<stop stop-color="#E09B3D"/>
<stop offset="0.3" stop-color="#C74C4D"/>
<stop offset="0.6" stop-color="#C21975"/>
<stop offset="1" stop-color="#7024C4"/>
</linearGradient>
<linearGradient id="paint1_linear_7477_139" x1="29.4014" y1="35.5" x2="6.53485" y2="0.500001" gradientUnits="userSpaceOnUse">
<stop stop-color="#E09B3D"/>
<stop offset="0.3" stop-color="#C74C4D"/>
<stop offset="0.6" stop-color="#C21975"/>
<stop offset="1" stop-color="#7024C4"/>
</linearGradient>
</defs>
</svg>
