<svg width="204" height="61" viewBox="0 0 204 61" fill="none" xmlns="http://www.w3.org/2000/svg">
<path d="M33.3955 0C18.1287 4.93887 5.2509 15.0074 0 30.01C5.19092 44.8416 17.9479 55.0225 33.3955 60.02C47.1319 49.861 54.6223 41.7025 60.1328 30.01C52.2233 24.9161 48.9007 22.2937 42.4881 14.4113C33.8962 18.2388 26.4175 22.6994 19.7926 29.8471C22.17 33.0955 26.1173 36.1278 29.3086 38.619C33.9596 35.3404 37.5065 32.1459 39.8041 29.4049C41.2447 31.0934 42.8691 32.2169 44.4162 33.1561C40.4198 39.6776 35.935 43.2581 30.3968 46.678C22.0783 42.4538 15.3916 35.1421 12.1418 28.9598C18.2331 19.3262 27.7872 12.8216 38.6432 9.19661C36.8844 6.24179 34.5791 3.49006 33.3955 0Z" fill="#FFD001"/>
<path d="M80.6273 44.7947C77.3103 44.7947 74.5323 44.1548 72.2933 42.8751C70.0958 41.554 68.4372 39.2834 67.3177 36.0633C66.2397 32.8019 65.7007 28.2813 65.7007 22.5016C65.7007 16.7219 66.2397 12.222 67.3177 9.00189C68.3958 5.74049 69.9506 3.4699 71.9823 2.19011C74.014 0.869033 76.481 0.208496 79.3834 0.208496C81.2493 0.208496 83.0322 0.332346 84.7322 0.580047C86.4736 0.82775 87.8004 1.11673 88.7126 1.447V4.23364H80.6273C78.7615 4.23364 77.1237 4.74969 75.714 5.78178C74.3457 6.81387 73.2677 8.65098 72.4799 11.2931C71.6921 13.894 71.2982 17.6302 71.2982 22.5016C71.2982 27.3318 71.6921 31.068 72.4799 33.7101C73.3091 36.3523 74.5116 38.1894 76.0871 39.2215C77.6627 40.2536 79.5908 40.7696 81.8712 40.7696H84.359V20.6439H89.9565V43.5562C89.0443 43.8452 87.7175 44.1136 85.9761 44.3613C84.2761 44.6502 82.4932 44.7947 80.6273 44.7947Z" fill="#333333"/>
<path d="M101.151 44.1755V0.827749H106.749V39.8407H122.298V44.1755H101.151Z" fill="#333333"/>
<path d="M128.512 44.4851V37.6733H134.11V44.4851H128.512Z" fill="#333333"/>
<path d="M153.385 44.7947C151.436 44.7947 149.736 44.547 148.285 44.0516C146.834 43.5149 145.714 42.5861 144.927 41.265C144.139 39.9026 143.745 37.983 143.745 35.5059V13.2128H149.342V35.5059C149.342 37.6527 149.902 39.1183 151.022 39.9026C152.141 40.687 153.551 41.0792 155.251 41.0792C156.039 41.0792 156.847 40.9554 157.676 40.7077C158.506 40.4187 159.148 40.1297 159.604 39.8407V13.2128H165.202V44.1755H160.537L160.226 42.3177H159.915C159.128 43.1021 158.153 43.7214 156.992 44.1755C155.831 44.5883 154.629 44.7947 153.385 44.7947Z" fill="#333333"/>
<path d="M184.458 44.7947C182.592 44.7947 180.954 44.5264 179.545 43.9897C178.176 43.453 177.098 42.4829 176.31 41.0792C175.523 39.6343 175.129 37.5701 175.129 34.8867C175.129 32.2858 175.523 30.3042 176.31 28.9419C177.098 27.5382 178.176 26.5887 179.545 26.0933C180.954 25.5566 182.592 25.2883 184.458 25.2883C185.412 25.2883 186.448 25.3502 187.568 25.474C188.729 25.5979 189.765 25.7424 190.677 25.9075V23.1209C190.677 20.3136 190.076 18.4765 188.874 17.6095C187.713 16.7426 186.034 16.3091 183.836 16.3091H177.617V13.8321C178.57 13.5018 179.731 13.2128 181.099 12.9651C182.509 12.7174 183.836 12.5936 185.08 12.5936C187.568 12.5936 189.641 12.8825 191.299 13.4605C192.958 13.9972 194.202 15.0293 195.031 16.5568C195.86 18.043 196.275 20.231 196.275 23.1209V44.1755H191.61L191.299 42.3177H190.988C190.201 43.1021 189.226 43.7214 188.065 44.1755C186.904 44.5883 185.702 44.7947 184.458 44.7947ZM186.324 41.0792C187.112 41.0792 187.92 40.9554 188.749 40.7077C189.579 40.4187 190.221 40.1297 190.677 39.8407V29.0038H186.324C185.287 29.0038 184.334 29.1689 183.463 29.4992C182.634 29.8294 181.97 30.4281 181.473 31.295C180.975 32.1207 180.726 33.3179 180.726 34.8867C180.726 36.538 180.975 37.8178 181.473 38.7261C181.97 39.593 182.634 40.2123 183.463 40.5838C184.334 40.9141 185.287 41.0792 186.324 41.0792Z" fill="#333333"/>
<path d="M65.7007 59.8114V52.5427H66.2442C66.3004 52.7144 66.366 53.0071 66.3847 53.2393C66.7689 52.7648 67.3312 52.4822 67.9871 52.4822H68.0715C69.3553 52.4822 70.2549 53.5422 70.2549 55.0363V55.2988C70.2549 56.7929 69.3553 57.8529 68.0715 57.8529H67.9871C67.3312 57.8529 66.7783 57.5803 66.3941 57.116V59.8114H65.7007ZM67.9215 57.1059H67.9965C68.9055 57.1059 69.5239 56.3689 69.5239 55.2988V55.0363C69.5239 53.9662 68.9055 53.2292 67.9965 53.2292H67.9215C67.0032 53.2292 66.3941 53.9763 66.3941 55.0363V55.2988C66.3941 56.3689 67.0126 57.1059 67.9215 57.1059Z" fill="#333333"/>
<path d="M73.3585 57.8529C72.0373 57.8529 71.1096 56.7929 71.1096 55.2988V55.0363C71.1096 53.5422 72.0373 52.4822 73.3585 52.4822H73.4522C74.7735 52.4822 75.7012 53.5422 75.7012 55.0363V55.2988C75.7012 56.7929 74.7735 57.8529 73.4522 57.8529H73.3585ZM73.3679 57.1059H73.4429C74.3612 57.1059 74.9703 56.3588 74.9703 55.2988V55.0363C74.9703 53.9662 74.3518 53.2292 73.4429 53.2292H73.3679C72.459 53.2292 71.8405 53.9662 71.8405 55.0363V55.2988C71.8405 56.3588 72.4496 57.1059 73.3679 57.1059Z" fill="#333333"/>
<path d="M78.2619 57.8529C77.4841 57.8529 76.7626 57.4592 76.3503 56.6617L76.9219 56.278C77.2124 56.8131 77.6247 57.126 78.29 57.126H78.3837C79.0116 57.126 79.4239 56.8131 79.4239 56.3386V56.2578C79.4239 55.7329 79.0865 55.4603 78.4587 55.4603H77.709V54.7738H78.4774C78.9272 54.7738 79.2271 54.4811 79.2271 54.047V53.946C79.2271 53.5119 78.8804 53.2191 78.365 53.2191H78.29C77.6809 53.2191 77.278 53.522 77.0531 54.0571L76.444 53.6734C76.8001 52.9163 77.456 52.4822 78.29 52.4822H78.3837C79.3021 52.4822 79.9486 53.0475 79.9486 53.8551V53.9864C79.9486 54.4104 79.7519 54.7637 79.3958 55.0363C79.8831 55.3089 80.1548 55.7228 80.1548 56.2578V56.379C80.1548 57.2573 79.4333 57.8529 78.3556 57.8529H78.2619Z" fill="#333333"/>
<path d="M81.2758 59.8114V52.5427H81.8193C81.8756 52.7144 81.9412 53.0071 81.9599 53.2393C82.3441 52.7648 82.9064 52.4822 83.5623 52.4822H83.6466C84.9304 52.4822 85.83 53.5422 85.83 55.0363V55.2988C85.83 56.7929 84.9304 57.8529 83.6466 57.8529H83.5623C82.9064 57.8529 82.3535 57.5803 81.9693 57.116V59.8114H81.2758ZM83.4967 57.1059H83.5717C84.4806 57.1059 85.0991 56.3689 85.0991 55.2988V55.0363C85.0991 53.9662 84.4806 53.2292 83.5717 53.2292H83.4967C82.5784 53.2292 81.9693 53.9763 81.9693 55.0363V55.2988C81.9693 56.3689 82.5877 57.1059 83.4967 57.1059Z" fill="#333333"/>
<path d="M88.9337 57.8529C87.6124 57.8529 86.6847 56.7929 86.6847 55.2988V55.0363C86.6847 53.5422 87.6124 52.4822 88.9337 52.4822H89.0274C90.3487 52.4822 91.2764 53.5422 91.2764 55.0363V55.2988C91.2764 56.7929 90.3487 57.8529 89.0274 57.8529H88.9337ZM88.9431 57.1059H89.018C89.9364 57.1059 90.5455 56.3588 90.5455 55.2988V55.0363C90.5455 53.9662 89.927 53.2292 89.018 53.2292H88.9431C88.0341 53.2292 87.4156 53.9662 87.4156 55.0363V55.2988C87.4156 56.3588 88.0247 57.1059 88.9431 57.1059Z" fill="#333333"/>
<path d="M94.5283 57.8529C92.9634 57.8529 92.1388 56.6516 92.1388 54.3296C92.1388 52.0279 92.9447 50.9275 94.3315 50.5943C95.0906 50.4126 95.9714 50.3521 96.3556 50.3521V51.1496C95.7934 51.1496 95.0999 51.2203 94.5002 51.3515C93.4507 51.5938 92.851 52.2298 92.7385 53.8249C93.0759 53.0677 93.7131 52.4923 94.5658 52.4923H94.622C95.9433 52.4923 96.8148 53.5624 96.8148 55.0464V55.2988C96.8148 56.7828 95.8402 57.8529 94.5752 57.8529H94.5283ZM94.5189 57.1059H94.5564C95.4373 57.1059 96.0839 56.3386 96.0839 55.2786V55.0262C96.0839 53.9662 95.4935 53.1989 94.5752 53.1989H94.5564C93.6381 53.1989 92.9915 54.0167 92.9915 55.0767V55.2786C92.9915 56.3386 93.6381 57.1059 94.5189 57.1059Z" fill="#333333"/>
<path d="M98.0407 57.7923V52.5427H98.7341V54.8344H98.7716L100.927 52.5427H101.808L99.4931 54.9959L101.948 57.7923H101.002L98.7809 55.1978H98.7341V57.7923H98.0407Z" fill="#333333"/>
<path d="M103.954 57.8731C103.008 57.8731 102.352 57.2573 102.352 56.3184V56.2478C102.352 55.1171 103.27 54.5618 105.144 54.5618H105.594V54.1984C105.594 53.5826 105.191 53.209 104.498 53.209H104.442C103.926 53.209 103.355 53.421 102.942 53.7744L102.595 53.1586C103.186 52.7245 103.804 52.4519 104.488 52.4519H104.545C105.632 52.4519 106.288 53.1081 106.288 54.1378V56.9342C106.288 57.2169 106.372 57.5702 106.456 57.7923H105.744C105.688 57.6409 105.641 57.3683 105.613 57.1462C105.116 57.6207 104.545 57.8731 103.954 57.8731ZM103.992 57.126C104.648 57.126 105.21 56.803 105.594 56.3083V55.2584H105.285C103.711 55.2584 103.064 55.5411 103.064 56.2377V56.2881C103.064 56.803 103.439 57.126 103.992 57.126Z" fill="#333333"/>
<path d="M111.405 57.7923V53.2494H109.859V52.5427H113.645V53.2494H112.098V57.7923H111.405Z" fill="#333333"/>
<path d="M115.887 57.8731C114.941 57.8731 114.285 57.2573 114.285 56.3184V56.2478C114.285 55.1171 115.203 54.5618 117.077 54.5618H117.527V54.1984C117.527 53.5826 117.124 53.209 116.431 53.209H116.375C115.859 53.209 115.288 53.421 114.875 53.7744L114.529 53.1586C115.119 52.7245 115.737 52.4519 116.421 52.4519H116.478C117.565 52.4519 118.221 53.1081 118.221 54.1378V56.9342C118.221 57.2169 118.305 57.5702 118.389 57.7923H117.677C117.621 57.6409 117.574 57.3683 117.546 57.1462C117.049 57.6207 116.478 57.8731 115.887 57.8731ZM115.925 57.126C116.581 57.126 117.143 56.803 117.527 56.3083V55.2584H117.218C115.644 55.2584 114.997 55.5411 114.997 56.2377V56.2881C114.997 56.803 115.372 57.126 115.925 57.126Z" fill="#333333"/>
<path d="M122.401 57.7923V52.5427H126.44V57.7923H125.746V53.2494H123.094V57.7923H122.401Z" fill="#333333"/>
<path d="M128.376 51.5231C128.113 51.5231 127.916 51.3111 127.916 51.0284C127.916 50.7458 128.113 50.5237 128.376 50.5237C128.638 50.5237 128.835 50.7458 128.835 51.0284C128.835 51.3111 128.638 51.5231 128.376 51.5231ZM128.029 57.7923V52.5427H128.722V57.7923H128.029Z" fill="#333333"/>
<path d="M129.661 59.0846V57.0857H130.026C130.448 56.8434 130.654 55.3997 130.654 52.5427H133.906V57.0857H134.543V59.0846H133.868V57.7923H130.335V59.0846H129.661ZM130.794 57.0857H133.212V53.2494H131.329C131.3 55.642 131.094 56.8636 130.794 57.0857Z" fill="#333333"/>
<path d="M136.561 57.7923V53.2494H135.015V52.5427H138.801V53.2494H137.255V57.7923H136.561Z" fill="#333333"/>
<path d="M139.788 59.8114V52.5427H140.331C140.388 52.7144 140.453 53.0071 140.472 53.2393C140.856 52.7648 141.418 52.4822 142.074 52.4822H142.159C143.443 52.4822 144.342 53.5422 144.342 55.0363V55.2988C144.342 56.7929 143.443 57.8529 142.159 57.8529H142.074C141.418 57.8529 140.866 57.5803 140.481 57.116V59.8114H139.788ZM142.009 57.1059H142.084C142.993 57.1059 143.611 56.3689 143.611 55.2988V55.0363C143.611 53.9662 142.993 53.2292 142.084 53.2292H142.009C141.09 53.2292 140.481 53.9763 140.481 55.0363V55.2988C140.481 56.3689 141.1 57.1059 142.009 57.1059Z" fill="#333333"/>
<path d="M145.562 57.7923V52.5427H146.256V56.4698H146.349L148.936 52.5427H149.648V57.7923H148.954V53.8148H148.861L146.237 57.7923H145.562Z" fill="#333333"/>
<path d="M151.245 57.7923V52.5427H151.948L153.635 56.0357H153.728L155.415 52.5427H156.118V57.7923H155.424V54.1277H155.331L154.019 56.8838H153.344L152.032 54.1378H151.939V57.7923H151.245Z" fill="#333333"/>
<path d="M157.715 57.7923V52.5427H158.408V54.8344H158.446L160.601 52.5427H161.482L159.167 54.9959L161.623 57.7923H160.676L158.455 55.1978H158.408V57.7923H157.715Z" fill="#333333"/>
<path d="M163.629 57.8731C162.682 57.8731 162.026 57.2573 162.026 56.3184V56.2478C162.026 55.1171 162.944 54.5618 164.819 54.5618H165.268V54.1984C165.268 53.5826 164.865 53.209 164.172 53.209H164.116C163.6 53.209 163.029 53.421 162.616 53.7744L162.27 53.1586C162.86 52.7245 163.479 52.4519 164.163 52.4519H164.219C165.306 52.4519 165.962 53.1081 165.962 54.1378V56.9342C165.962 57.2169 166.046 57.5702 166.131 57.7923H165.418C165.362 57.6409 165.315 57.3683 165.287 57.1462C164.79 57.6207 164.219 57.8731 163.629 57.8731ZM163.666 57.126C164.322 57.126 164.884 56.803 165.268 56.3083V55.2584H164.959C163.385 55.2584 162.738 55.5411 162.738 56.2377V56.2881C162.738 56.803 163.113 57.126 163.666 57.126Z" fill="#333333"/>
<path d="M172.073 57.8529C170.704 57.8529 169.777 56.8131 169.777 55.2988V55.0363C169.777 53.522 170.723 52.4822 172.054 52.4822H172.129C172.963 52.4822 173.694 52.9668 174.097 53.8047L173.534 54.1378C173.253 53.5422 172.747 53.2191 172.119 53.2191H172.026C171.107 53.2191 170.508 53.946 170.508 55.0363V55.2988C170.508 56.3891 171.135 57.116 172.082 57.116H172.176C172.747 57.116 173.225 56.803 173.525 56.2276L174.106 56.5607C173.666 57.3885 172.963 57.8529 172.147 57.8529H172.073Z" fill="#333333"/>
<path d="M176.468 57.8731C175.521 57.8731 174.865 57.2573 174.865 56.3184V56.2478C174.865 55.1171 175.783 54.5618 177.658 54.5618H178.107V54.1984C178.107 53.5826 177.704 53.209 177.011 53.209H176.955C176.439 53.209 175.868 53.421 175.455 53.7744L175.109 53.1586C175.699 52.7245 176.318 52.4519 177.002 52.4519H177.058C178.145 52.4519 178.801 53.1081 178.801 54.1378V56.9342C178.801 57.2169 178.885 57.5702 178.969 57.7923H178.257C178.201 57.6409 178.154 57.3683 178.126 57.1462C177.629 57.6207 177.058 57.8731 176.468 57.8731ZM176.505 57.126C177.161 57.126 177.723 56.803 178.107 56.3083V55.2584H177.798C176.224 55.2584 175.577 55.5411 175.577 56.2377V56.2881C175.577 56.803 175.952 57.126 176.505 57.126Z" fill="#333333"/>
<path d="M180.983 50.5237H181.657C181.657 50.9982 181.957 51.3111 182.407 51.3111C182.857 51.3111 183.147 50.9982 183.147 50.5237H183.822C183.822 51.3616 183.269 51.9168 182.407 51.9168C181.545 51.9168 180.983 51.3616 180.983 50.5237ZM180.355 57.7923V52.5427H181.048V56.4698H181.142L183.728 52.5427H184.44V57.7923H183.747V53.8148H183.653L181.029 57.7923H180.355Z" fill="#333333"/>
<path d="M186.975 57.7923V53.2494H185.428V52.5427H189.214V53.2494H187.668V57.7923H186.975Z" fill="#333333"/>
<path d="M190.548 51.5231C190.286 51.5231 190.089 51.3111 190.089 51.0284C190.089 50.7458 190.286 50.5237 190.548 50.5237C190.81 50.5237 191.007 50.7458 191.007 51.0284C191.007 51.3111 190.81 51.5231 190.548 51.5231ZM190.201 57.7923V52.5427H190.895V57.7923H190.201Z" fill="#333333"/>
<path d="M192.489 57.7923V52.5427H194.551C195.441 52.5427 196.031 53.0778 196.031 53.8854V54.0268C196.031 54.4609 195.834 54.8142 195.516 55.0565C195.994 55.2786 196.275 55.7127 196.275 56.2175V56.3487C196.275 57.2169 195.61 57.7923 194.635 57.7923H192.489ZM193.183 54.7738H194.56C195.01 54.7738 195.31 54.4811 195.31 54.0369V53.9864C195.31 53.5422 195.019 53.2494 194.569 53.2494H193.183V54.7738ZM193.183 57.0857H194.682C195.188 57.0857 195.544 56.7727 195.544 56.3184V56.2276C195.544 55.7632 195.207 55.4603 194.682 55.4603H193.183V57.0857Z" fill="#333333"/>
</svg>
