<svg width="35" height="36" viewBox="0 0 35 36" fill="none" xmlns="http://www.w3.org/2000/svg">
<path fill-rule="evenodd" clip-rule="evenodd" d="M17.5 35.5C27.165 35.5 35 27.665 35 18C35 8.33502 27.165 0.5 17.5 0.5C7.83502 0.5 0 8.33502 0 18C0 27.665 7.83502 35.5 17.5 35.5Z" fill="#675DA9"/>
<rect y="0.5" width="35" height="35" rx="5" fill="#675DA9"/>
<path d="M27.3271 13.6001L27.3209 13.5754C26.8246 11.5519 24.5868 9.38067 22.5318 8.92895L22.5086 8.92414C19.1848 8.28473 15.8145 8.28473 12.4913 8.92414L12.4675 8.92895C10.4131 9.38067 8.17538 11.5519 7.67833 13.5754L7.67288 13.6001C7.05924 16.4259 7.05924 19.2916 7.67288 22.1174L7.67833 22.1421C8.15417 24.0792 10.2253 26.1507 12.2036 26.7204V28.9791C12.2036 29.7966 13.1915 30.1981 13.7534 29.6082L16.0228 27.2294C16.515 27.2571 17.0075 27.2726 17.5 27.2726C19.1732 27.2726 20.847 27.1131 22.5086 26.7934L22.5318 26.7886C24.5868 26.3369 26.8246 24.1656 27.3209 22.1422L27.3271 22.1174C27.9407 19.2916 27.9407 16.4259 27.3271 13.6001ZM25.5312 21.7076C25.1998 23.0277 23.5007 24.6688 22.1507 24.972C20.3833 25.3109 18.602 25.4558 16.8225 25.4061C16.7871 25.4051 16.753 25.4189 16.7284 25.4445C16.4758 25.7059 15.0713 27.1598 15.0713 27.1598L13.3088 28.9838C13.18 29.1193 12.9536 29.0271 12.9536 28.8401V25.0984C12.9536 25.0366 12.9098 24.9841 12.8496 24.9722L12.8486 24.972C11.4986 24.6687 9.80016 23.0276 9.46811 21.7075C8.91584 19.1533 8.91584 16.564 9.46811 14.0098C9.80016 12.6897 11.4986 11.0486 12.8486 10.7454C15.9352 10.1534 19.0648 10.1534 22.1507 10.7454C23.5014 11.0486 25.1998 12.6897 25.5312 14.0098C26.0841 16.5641 26.0841 19.1534 25.5312 21.7076Z" fill="white"/>
<path d="M20.4367 23.4346C20.2292 23.3711 20.0314 23.3284 19.8477 23.2515C17.9443 22.4552 16.1926 21.4279 14.805 19.8531C14.0159 18.9575 13.3983 17.9465 12.8763 16.8766C12.6287 16.3692 12.4201 15.8419 12.2074 15.3181C12.0135 14.8404 12.2991 14.3468 12.5999 13.9869C12.8821 13.6491 13.2452 13.3906 13.6385 13.2001C13.9454 13.0514 14.2482 13.1371 14.4724 13.3995C14.9571 13.9667 15.4022 14.5629 15.7627 15.2204C15.9844 15.6248 15.9235 16.1192 15.5218 16.3944C15.4242 16.4613 15.3352 16.5398 15.2442 16.6154C15.1645 16.6816 15.0894 16.7485 15.0347 16.8381C14.9348 17.0022 14.93 17.1957 14.9944 17.374C15.4898 18.7469 16.3248 19.8144 17.6951 20.3894C17.9144 20.4814 18.1346 20.5885 18.3872 20.5588C18.8103 20.509 18.9473 20.041 19.2437 19.7966C19.5335 19.5576 19.9038 19.5545 20.216 19.7537C20.5282 19.9529 20.8308 20.1668 21.1316 20.383C21.4269 20.5951 21.7209 20.8027 21.9933 21.0446C22.2552 21.2772 22.3454 21.5823 22.1979 21.898C21.9279 22.476 21.5351 22.957 20.9683 23.264C20.8083 23.3505 20.6172 23.3786 20.4367 23.4346C20.6172 23.3786 20.2292 23.371 20.4367 23.4346ZM17.5052 12.5391C19.9949 12.6094 22.0398 14.2755 22.478 16.7576C22.5526 17.1805 22.5792 17.6129 22.6124 18.0421C22.6264 18.2226 22.525 18.3942 22.3318 18.3965C22.1322 18.3989 22.0424 18.2305 22.0295 18.0501C22.0038 17.6928 21.986 17.334 21.9372 16.9797C21.6795 15.1095 20.2006 13.5623 18.3546 13.2303C18.0768 13.1803 17.7925 13.1672 17.5111 13.1374C17.3332 13.1185 17.1002 13.1077 17.0608 12.8847C17.0278 12.6978 17.1842 12.5489 17.3608 12.5394C17.4088 12.5367 17.457 12.5389 17.5052 12.5391C19.9949 12.6094 17.457 12.5389 17.5052 12.5391Z" fill="white"/>
<path d="M21.2888 17.4849C21.2847 17.5163 21.2825 17.59 21.2643 17.6594C21.1982 17.9115 20.8193 17.9431 20.732 17.6887C20.7062 17.6132 20.7023 17.5273 20.7021 17.446C20.7013 16.9143 20.5866 16.3831 20.3207 15.9204C20.0474 15.4449 19.6298 15.0452 19.1399 14.8033C18.8438 14.6571 18.5234 14.5662 18.1988 14.512C18.0569 14.4884 17.9136 14.474 17.771 14.454C17.5982 14.4298 17.506 14.3188 17.5141 14.1471C17.5218 13.9862 17.6384 13.8705 17.8122 13.8804C18.3836 13.9131 18.9355 14.0376 19.4434 14.3089C20.4764 14.8605 21.0664 15.7312 21.2387 16.8938C21.2464 16.9465 21.259 16.9986 21.2629 17.0515C21.2727 17.1821 21.2788 17.3128 21.2888 17.4849C21.2847 17.5163 21.2788 17.3128 21.2888 17.4849Z" fill="white"/>
<path d="M19.7402 17.4242C19.5319 17.428 19.4204 17.3117 19.3989 17.1192C19.384 16.9849 19.3722 16.8488 19.3404 16.7182C19.2778 16.4609 19.1422 16.2225 18.9276 16.0648C18.8263 15.9904 18.7115 15.9361 18.5912 15.9011C18.4384 15.8566 18.2797 15.8689 18.1273 15.8312C17.9617 15.7903 17.8702 15.6551 17.8962 15.4985C17.9199 15.356 18.0574 15.2447 18.2118 15.256C19.1771 15.3263 19.8669 15.8295 19.9654 16.9753C19.9724 17.0562 19.9805 17.1416 19.9627 17.219C19.9323 17.3514 19.835 17.4178 19.7402 17.4242C19.835 17.4178 19.5319 17.428 19.7402 17.4242Z" fill="white"/>
</svg>
